Coordinates
version=1
nRows=49
nColumns=12
inDegrees=yes

Units are S.I. units (second, meters, Newtons, ...)
Angles are in degrees

endheader
time	SC_y	SC_z	SC_x	AC_y	AC_z	AC_x	GH_y	GH_z	GH_yy	EL_x	PS_y
       0.0              -38.24          25.11          59.96          36.19          -14.6         -0.159          155.9          52.47          156.4          55.96          74.53
   0.01948              -38.24          25.11          59.96          36.19          -14.6        -0.1568          155.9          52.46          156.4          55.95          74.52
   0.03896              -38.24          25.11          59.96          36.19          -14.6        -0.1544          155.8          52.45          156.4          55.95          74.52
   0.05844              -38.25          25.11          59.96          36.19          -14.6         -0.152          155.8          52.45          156.3          55.94          74.51
   0.07793              -38.25          25.11          59.97          36.19          -14.6        -0.1493          155.8          52.44          156.3          55.93           74.5
   0.09741              -38.25          25.11          59.97          36.19          -14.6        -0.1465          155.8          52.43          156.2          55.92           74.5
    0.1169              -38.26          25.11          59.97          36.19         -14.61        -0.1435          155.8          52.42          156.2          55.91          74.49
    0.1364              -38.26           25.1          59.98          36.19         -14.61        -0.1403          155.8          52.42          156.2           55.9          74.48
    0.1559              -38.27           25.1          59.98          36.19         -14.61        -0.1368          155.8          52.41          156.1          55.89          74.47
    0.1753              -38.27           25.1          59.98          36.19         -14.61        -0.1331          155.8           52.4          156.0          55.88          74.46
    0.1948              -38.28           25.1          59.99          36.19         -14.61        -0.1291          155.8          52.39          156.0          55.87          74.45
    0.2143              -38.28           25.1          59.99           36.2         -14.61        -0.1248          155.8          52.37          155.9          55.86          74.44
    0.2338              -38.29           25.1           60.0           36.2         -14.61        -0.1202          155.8          52.36          155.8          55.84          74.43
    0.2533               -38.3           25.1           60.0           36.2         -14.61        -0.1152          155.8          52.35          155.8          55.83          74.42
    0.2727               -38.3           25.1          60.01           36.2         -14.61        -0.1099          155.8          52.33          155.7          55.81          74.41
    0.2922              -38.31          25.09          60.01           36.2         -14.61         -0.104          155.8          52.32          155.6          55.79          74.39
    0.3117              -38.32          25.09          60.02           36.2         -14.61       -0.09765          155.8           52.3          155.5          55.77          74.38
    0.3312              -38.33          25.09          60.03           36.2         -14.61       -0.09072          155.8          52.28          155.4          55.75          74.36
    0.3507              -38.34          25.09          60.03           36.2         -14.61       -0.08316          155.8          52.26          155.3          55.73          74.34
    0.3701              -38.35          25.08          60.04           36.2         -14.61       -0.07488          155.8          52.24          155.2           55.7          74.32
    0.3896              -38.36          25.08          60.05           36.2         -14.61       -0.06579          155.8          52.21          155.0          55.68           74.3
    0.4091              -38.37          25.08          60.06           36.2         -14.61       -0.05579          155.8          52.19          154.9          55.64          74.27
    0.4286              -38.39          25.08          60.07          36.21         -14.62       -0.04474          155.8          52.16          154.7          55.61          74.25
    0.4481               -38.4          25.07          60.08          36.21         -14.62        -0.0325          155.8          52.12          154.5          55.57          74.22
    0.4676              -38.42          25.07           60.1          36.21         -14.62       -0.01888          155.7          52.09          154.3          55.53          74.18
     0.487              -38.44          25.06          60.11          36.21         -14.62      -0.003697          155.7          52.05          154.1          55.48          74.14
    0.5065              -38.46          25.06          60.13          36.21         -14.62        0.01332          155.7           52.0          153.8          55.43           74.1
     0.526              -38.49          25.05          60.15          36.21         -14.62        0.03246          155.7          51.95          153.5          55.37          74.06
    0.5455              -38.52          25.04          60.17          36.22         -14.63        0.05408          155.7          51.89          153.2          55.31           74.0
     0.565              -38.55          25.04          60.19          36.22         -14.63        0.07864          155.7          51.82          152.8          55.23          73.94
    0.5844              -38.59          25.03          60.22          36.22         -14.63         0.1067          155.6          51.75          152.4          55.15          73.87
    0.6039              -38.63          25.02          60.25          36.23         -14.64         0.1388          155.6          51.66          151.9          55.05          73.79
    0.6234              -38.68          25.01          60.29          36.23         -14.64          0.176          155.6          51.56          151.4          54.93           73.7
    0.6429              -38.74          24.99          60.33          36.24         -14.64         0.2191          155.5          51.44          150.7           54.8           73.6
    0.6624               -38.8          24.98          60.38          36.24         -14.65         0.2696          155.5           51.3          149.9          54.65          73.47
    0.6819              -38.88          24.96          60.44          36.25         -14.66         0.3291          155.5          51.14          149.0          54.46          73.32
    0.7013              -38.97          24.94          60.51          36.26         -14.66         0.3998          155.4          50.95          148.0          54.25          73.15
    0.7208              -39.09          24.91           60.6          36.27         -14.67         0.4846          155.3          50.72          146.7          53.99          72.94
    0.7403              -39.22          24.88           60.7          36.28         -14.69         0.5872          155.2          50.44          145.1          53.67          72.69
    0.7598              -39.39          24.84          60.82           36.3          -14.7         0.7125          155.1           50.1          143.2          53.29          72.38
    0.7793              -39.59          24.79          60.97          36.31         -14.72         0.8671          155.0          49.68          140.9          52.82           72.0
    0.7987              -39.84          24.73          61.17          36.34         -14.74           1.06          154.9          49.16          137.9          52.22          71.52
    0.8182              -40.16          24.66          61.41          36.37         -14.76          1.303          154.7           48.5          134.3          51.48          70.92
    0.8377              -40.57          24.56          61.71           36.4          -14.8          1.612          154.4          47.66          129.6          50.53          70.16
    0.8572              -41.09          24.44           62.1          36.45         -14.84          2.007          154.1          46.59          123.6          49.32          69.19
    0.8767              -41.76          24.29          62.61          36.51          -14.9          2.514          153.7          45.22          115.9          47.77          67.94
    0.8962              -42.61          24.09          63.25          36.59         -14.97          3.162          153.2          43.46          106.1          45.78          66.34
    0.9156              -43.69          23.83          64.06          36.69         -15.06          3.977          152.5          41.25           93.7          43.28          64.34
    0.9351               -45.0          23.53          65.04           36.8         -15.16          4.969          151.7          38.56          78.64          40.24          61.89
